<?xml version="1.0" encoding="utf-8"?>
<!-- Generator: Adobe Illustrator 16.0.0, SVG Export Plug-In . SVG Version: 6.00 Build 0)  -->
<!DOCTYPE svg PUBLIC "-//W3C//DTD SVG 1.1//EN" "http://www.w3.org/Graphics/SVG/1.1/DTD/svg11.dtd">
<svg version="1.1" xmlns="http://www.w3.org/2000/svg" xmlns:xlink="http://www.w3.org/1999/xlink" x="0px" y="0px" width="32px"
	 height="32px" viewBox="0 0 32 32" enable-background="new 0 0 32 32" xml:space="preserve">
<g id="Layer_2">
</g>
<g id="Layer_1">
</g>
<g id="Layer_4">
	<path fill="#C8D5FC" d="M9.438,9.304c0-3.373,2.747-6.117,6.124-6.117c3.378,0,6.126,2.744,6.126,6.117
		c0,3.372-2.748,6.115-6.126,6.115C12.185,15.419,9.438,12.676,9.438,9.304z"/>
	<path fill="#C8D5FC" d="M3.562,27.5c0,0,0.312-4.625,2.625-7.438C8.519,17.228,12.25,15,17.25,16s6.562,3.312,6.562,3.312
		S20.625,20.75,20,22.438s0.375,5.125,0.375,5.375s-17.062-0.25-17.062-0.25"/>
	<path fill="none" stroke="#FAFBFC" stroke-miterlimit="10" d="M10.062,9.553c0-3.189,2.747-5.782,6.124-5.782
		c3.378,0,6.126,2.593,6.126,5.782c0,3.187-2.748,5.78-6.126,5.78C12.81,15.333,10.062,12.74,10.062,9.553z"/>
	<path fill="none" stroke="#FCFCFC" stroke-miterlimit="10" d="M4.188,27.562c0,0-0.031-4.5,2.75-7.344
		c2.43-2.484,5.938-5.156,10.938-4.156s6.562,3.312,6.562,3.312s-3.188,1.438-3.812,3.125S21,27.625,21,27.875
		c0,1.002-19.508-0.321-17.062-0.25"/>
</g>
<g id="Layer_3">
	<g>
		<g>
			<g>
				<path fill="#FCFCFC" d="M15.556,17.575c-0.814,0-1.627,0.096-2.413,0.281c-0.296,0.071-0.479,0.368-0.409,0.665
					c0.059,0.255,0.286,0.428,0.538,0.428c0.042,0,0.085-0.007,0.127-0.018c0.702-0.166,1.429-0.25,2.157-0.25
					c0.306,0,0.553-0.247,0.553-0.554C16.108,17.822,15.861,17.575,15.556,17.575z"/>
			</g>
		</g>
		<g>
			<g>
				<path fill="#2F2B82" d="M24.642,19.198c-0.092-0.098-0.183-0.194-0.278-0.289c-1.613-1.612-3.59-2.73-5.746-3.275
					c2.279-1.137,3.849-3.491,3.849-6.207c0-3.821-3.109-6.931-6.932-6.931S8.604,5.606,8.604,9.427c0,2.716,1.57,5.07,3.85,6.207
					c-2.156,0.545-4.134,1.663-5.746,3.275c-2.358,2.359-3.658,5.493-3.658,8.829c0,0.306,0.248,0.553,0.554,0.553h16.754
					c1.015,1.198,2.529,1.959,4.218,1.959c3.047,0,5.526-2.478,5.526-5.525C30.101,21.699,27.658,19.235,24.642,19.198z
					 M9.709,9.427c0-3.212,2.613-5.825,5.825-5.825s5.826,2.613,5.826,5.825c0,3.212-2.614,5.826-5.826,5.826
					S9.709,12.64,9.709,9.427z M4.168,27.186c0.29-6.02,5.277-10.827,11.366-10.827c2.966,0,5.669,1.141,7.696,3.006
					c-2.4,0.601-4.184,2.776-4.184,5.36c0,0.883,0.209,1.719,0.579,2.461H4.168L4.168,27.186z M24.574,29.145
					c-2.438,0-4.421-1.982-4.421-4.42c0-2.438,1.982-4.421,4.421-4.421c2.438,0,4.42,1.982,4.42,4.421
					C28.994,27.162,27.012,29.145,24.574,29.145z"/>
			</g>
		</g>
		<g>
			<g>
				<path fill="#FFFFFF" d="M11.189,19.234c-0.157-0.263-0.496-0.348-0.758-0.19c-2.396,1.431-4.144,3.801-4.792,6.504
					c-0.07,0.296,0.111,0.595,0.408,0.667c0.043,0.009,0.087,0.015,0.13,0.015c0.25,0,0.476-0.171,0.536-0.423
					c0.581-2.417,2.142-4.534,4.284-5.813C11.26,19.836,11.346,19.496,11.189,19.234z"/>
			</g>
		</g>
		<g>
			<g>
				<path fill="#2F2B82" d="M10.96,18.984c-0.157-0.263-0.496-0.348-0.758-0.19c-2.396,1.431-4.144,3.801-4.792,6.504
					c-0.07,0.296,0.111,0.595,0.408,0.667c0.043,0.009,0.087,0.015,0.13,0.015c0.25,0,0.476-0.171,0.536-0.423
					c0.581-2.417,2.142-4.534,4.284-5.813C11.03,19.586,11.116,19.246,10.96,18.984z"/>
			</g>
		</g>
		<g>
			<g>
				<path fill="#2F2B82" d="M15.534,17.325c-0.814,0-1.627,0.096-2.413,0.281c-0.296,0.071-0.479,0.368-0.409,0.665
					c0.059,0.255,0.286,0.428,0.538,0.428c0.042,0,0.085-0.007,0.127-0.018c0.702-0.166,1.429-0.25,2.157-0.25
					c0.306,0,0.553-0.247,0.553-0.554C16.087,17.572,15.84,17.325,15.534,17.325z"/>
			</g>
		</g>
		<g>
			<g>
				<path fill="#2F2B82" d="M26.853,24.272h-1.718v-1.72c0-0.306-0.248-0.552-0.553-0.552c-0.306,0-0.553,0.246-0.553,0.552v1.72
					h-1.719c-0.305,0-0.553,0.246-0.553,0.552s0.248,0.553,0.553,0.553h1.719v1.718c0,0.306,0.247,0.554,0.553,0.554
					c0.305,0,0.553-0.248,0.553-0.554v-1.718h1.718c0.307,0,0.554-0.247,0.554-0.553S27.159,24.272,26.853,24.272z"/>
			</g>
		</g>
	</g>
</g>
<g id="Layer_6">
</g>
<g id="Layer_5">
</g>
</svg>
