<?xml version="1.0" encoding="utf-8"?>
<!-- Generator: Adobe Illustrator 16.0.0, SVG Export Plug-In . SVG Version: 6.00 Build 0)  -->
<!DOCTYPE svg PUBLIC "-//W3C//DTD SVG 1.1//EN" "http://www.w3.org/Graphics/SVG/1.1/DTD/svg11.dtd">
<svg version="1.1" xmlns="http://www.w3.org/2000/svg" xmlns:xlink="http://www.w3.org/1999/xlink" x="0px" y="0px" width="32px"
	 height="31.999px" viewBox="0 0 32 31.999" enable-background="new 0 0 32 31.999" xml:space="preserve">
<g id="Layer_2">
</g>
<g id="Layer_1">
</g>
<g id="Layer_4">
</g>
<g id="Layer_3">
</g>
<g id="Layer_6">
</g>
<g id="Layer_5">
	<g>
		<g>
			<path fill="#C8D5FC" d="M13.75,28.042c0,0-8.5,0.333-9.625-0.292s-1.417-0.958-1.375-3.083s0-15.333,0-15.333
				S2.417,7.417,4.667,7.417S26.417,7.5,26.417,7.5s2,0.125,2.25,1s0,10,0,10v7.709c0,0,0,1.75-3.375,1.75
				S13.75,28.042,13.75,28.042z"/>
		</g>
		<g>
			<path fill="#FCFCFC" d="M17.083,22.292c0,0.714-0.578,1.292-1.292,1.292l0,0c-0.713,0-1.292-0.578-1.292-1.292v-5.5
				c0-0.713,0.578-1.292,1.292-1.292l0,0c0.713,0,1.292,0.578,1.292,1.292V22.292z"/>
		</g>
		<g>
			<path fill="#FCFCFC" d="M10.833,5.646h1.771c0,0,0.188-1.542,1.438-1.792s3.437-0.396,4.083,0.292s0.958,1.688,0.958,1.688h1.812
				c0,0-0.313-2.562-1.958-3.25s-5.146-0.729-6.271,0.062S10.833,5.646,10.833,5.646z"/>
		</g>
		<g>
			<g>
				<g>
					<g>
						<path fill="#2F2B82" d="M17.207,3.452H14.53c-1.23,0-2.231,1.001-2.231,2.231c0,0.246,0.2,0.446,0.446,0.446
							s0.446-0.2,0.446-0.446c0-0.738,0.601-1.339,1.339-1.339h2.677c0.738,0,1.339,0.601,1.339,1.339
							c0,0.246,0.2,0.446,0.446,0.446s0.446-0.2,0.446-0.446C19.438,4.453,18.437,3.452,17.207,3.452z"/>
						<path fill="#2F2B82" d="M18.992,6.254c-0.315,0-0.571-0.256-0.571-0.571c0-0.669-0.544-1.214-1.214-1.214H14.53
							c-0.669,0-1.214,0.544-1.214,1.214c0,0.315-0.256,0.571-0.571,0.571s-0.571-0.256-0.571-0.571
							c0-1.299,1.057-2.356,2.356-2.356h2.677c1.299,0,2.356,1.057,2.356,2.356C19.563,5.998,19.307,6.254,18.992,6.254z
							 M14.53,4.219h2.677c0.807,0,1.464,0.657,1.464,1.464c0,0.177,0.144,0.321,0.321,0.321s0.321-0.144,0.321-0.321
							c0-1.162-0.945-2.106-2.106-2.106H14.53c-1.162,0-2.106,0.945-2.106,2.106c0,0.177,0.144,0.321,0.321,0.321
							s0.321-0.144,0.321-0.321C13.066,4.876,13.723,4.219,14.53,4.219z"/>
					</g>
					<g>
						<path fill="#F7F7F9" d="M23.667,18.771c-0.276,0-0.5-0.224-0.5-0.5V8.167c0-0.276,0.224-0.5,0.5-0.5s0.5,0.224,0.5,0.5v10.104
							C24.167,18.548,23.943,18.771,23.667,18.771z"/>
					</g>
					<g>
						<path fill="#F7F7F9" d="M6.646,18.667c-0.276,0-0.5-0.224-0.5-0.5V8.063c0-0.276,0.224-0.5,0.5-0.5s0.5,0.224,0.5,0.5v10.104
							C7.146,18.443,6.922,18.667,6.646,18.667z"/>
					</g>
					<g>
						<path fill="#2F2B82" d="M10.96,6.129c0.246,0,0.446-0.2,0.446-0.446c0-1.605,1.518-3.124,3.124-3.124h2.677
							c1.635,0,3.124,1.489,3.124,3.124c0,0.246,0.2,0.446,0.446,0.446s0.446-0.2,0.446-0.446c0-2.139-1.876-4.016-4.016-4.016
							H14.53c-2.102,0-4.016,1.914-4.016,4.016C10.514,5.929,10.713,6.129,10.96,6.129z"/>
						<path fill="#2F2B82" d="M20.776,6.254c-0.315,0-0.571-0.256-0.571-0.571c0-1.57-1.429-2.999-2.999-2.999H14.53
							c-1.542,0-2.999,1.458-2.999,2.999c0,0.315-0.256,0.571-0.571,0.571s-0.571-0.256-0.571-0.571
							c0-2.167,1.974-4.141,4.141-4.141h2.677c2.206,0,4.141,1.935,4.141,4.141C21.348,5.998,21.091,6.254,20.776,6.254z
							 M14.53,2.434h2.677c1.7,0,3.249,1.549,3.249,3.249c0,0.177,0.144,0.321,0.321,0.321s0.321-0.144,0.321-0.321
							c0-2.073-1.818-3.891-3.891-3.891H14.53c-2.037,0-3.891,1.854-3.891,3.891c0,0.177,0.144,0.321,0.321,0.321
							s0.321-0.144,0.321-0.321C11.281,4.013,12.86,2.434,14.53,2.434z"/>
					</g>
					<g>
						<path fill="#2F2B82" d="M28.808,20.854c-0.246,0-0.445,0.199-0.445,0.446v4.909c0,0.736-0.601,1.336-1.339,1.336H4.713
							c-0.738,0-1.339-0.6-1.339-1.336V21.3c0-0.247-0.2-0.446-0.446-0.446c-0.247,0-0.447,0.199-0.447,0.446v4.909
							c0,1.229,1.001,2.23,2.231,2.23h22.31c1.23,0,2.231-1.002,2.231-2.23V21.3C29.254,21.053,29.054,20.854,28.808,20.854z"/>
						<path fill="#2F2B82" d="M27.023,28.564H4.713c-1.299,0-2.356-1.057-2.356-2.355V21.3c0-0.315,0.256-0.571,0.572-0.571
							c0.315,0,0.571,0.256,0.571,0.571v4.909c0,0.668,0.544,1.211,1.214,1.211h22.31c0.669,0,1.214-0.543,1.214-1.211V21.3
							c0-0.315,0.256-0.571,0.57-0.571c0.315,0,0.572,0.256,0.572,0.571v4.909C29.379,27.508,28.322,28.564,27.023,28.564z
							 M2.929,20.979c-0.177,0-0.322,0.145-0.322,0.321v4.909c0,1.161,0.945,2.105,2.106,2.105h22.31
							c1.162,0,2.106-0.944,2.106-2.105V21.3c0-0.177-0.145-0.321-0.322-0.321c-0.177,0-0.32,0.145-0.32,0.321v4.909
							c0,0.806-0.657,1.461-1.464,1.461H4.713c-0.807,0-1.464-0.655-1.464-1.461V21.3C3.25,21.123,3.105,20.979,2.929,20.979z"/>
					</g>
					<g>
						<path fill="#2F2B82" d="M27.023,7.021H4.713c-1.23,0-2.231,1.001-2.231,2.231v8.924c0,1.229,1.001,2.231,2.231,2.231h9.816
							c0.247,0,0.446-0.2,0.446-0.447v-4.015h1.786v4.015c0,0.247,0.199,0.447,0.445,0.447h9.816c1.23,0,2.231-1.002,2.231-2.231
							V9.252C29.254,8.022,28.253,7.021,27.023,7.021z M28.362,18.177c0,0.737-0.601,1.339-1.339,1.339h-9.37v-3.57
							c0-0.492-0.401-0.893-0.892-0.893h-1.786c-0.492,0-0.893,0.4-0.893,0.893v3.57h-9.37c-0.739,0-1.339-0.602-1.339-1.339V9.252
							c0-0.738,0.6-1.339,1.339-1.339h2.23v10.263c0,0.246,0.2,0.446,0.446,0.446s0.446-0.2,0.446-0.446V7.914H23.9v10.263
							c0,0.246,0.2,0.446,0.446,0.446s0.446-0.2,0.446-0.446V7.914h2.23c0.738,0,1.339,0.601,1.339,1.339V18.177L28.362,18.177z"/>
						<path fill="#2F2B82" d="M27.023,20.533h-9.816c-0.314,0-0.57-0.257-0.57-0.572v-3.89h-1.536v3.89
							c0,0.315-0.256,0.572-0.571,0.572H4.713c-1.299,0-2.356-1.057-2.356-2.356V9.252c0-1.299,1.057-2.356,2.356-2.356h22.31
							c1.299,0,2.356,1.057,2.356,2.356v8.924C29.379,19.477,28.322,20.533,27.023,20.533z M14.851,15.821h2.036v4.14
							c0,0.178,0.144,0.322,0.32,0.322h9.816c1.162,0,2.106-0.945,2.106-2.106V9.252c0-1.161-0.945-2.106-2.106-2.106H4.713
							c-1.162,0-2.106,0.945-2.106,2.106v8.924c0,1.161,0.945,2.106,2.106,2.106h9.816c0.177,0,0.321-0.145,0.321-0.322V15.821z
							 M27.023,19.641h-9.495v-3.695c0-0.423-0.344-0.768-0.767-0.768h-1.786c-0.423,0-0.768,0.344-0.768,0.768v3.695H4.713
							c-0.807,0-1.464-0.656-1.464-1.464V9.252c0-0.807,0.657-1.464,1.464-1.464h2.355v10.388c0,0.177,0.144,0.321,0.321,0.321
							s0.321-0.145,0.321-0.321V7.789h16.313v10.388c0,0.177,0.144,0.321,0.321,0.321s0.321-0.145,0.321-0.321V7.789h2.355
							c0.808,0,1.464,0.657,1.464,1.464v8.924C28.487,18.984,27.831,19.641,27.023,19.641z M17.778,19.391h9.245
							c0.669,0,1.214-0.545,1.214-1.214V9.252c0-0.669-0.545-1.214-1.214-1.214h-2.105v10.138c0,0.315-0.256,0.571-0.571,0.571
							s-0.571-0.256-0.571-0.571V8.039H7.961v10.138c0,0.315-0.256,0.571-0.571,0.571s-0.571-0.256-0.571-0.571V8.039H4.713
							C4.044,8.039,3.5,8.583,3.5,9.252v8.924c0,0.669,0.544,1.214,1.214,1.214h9.245v-3.445c0-0.561,0.457-1.018,1.018-1.018h1.786
							c0.561,0,1.017,0.457,1.017,1.018V19.391z"/>
					</g>
					<g>
						<path fill="#2F2B82" d="M16.328,22.192c0-0.247-0.2-0.445-0.447-0.445h-0.004c-0.246,0-0.444,0.198-0.444,0.445
							s0.202,0.446,0.448,0.446C16.128,22.639,16.328,22.439,16.328,22.192z"/>
						<path fill="#2F2B82" d="M15.881,22.764c-0.316,0-0.573-0.256-0.573-0.571c0-0.314,0.255-0.57,0.569-0.57
							c0.32,0,0.576,0.256,0.576,0.57C16.453,22.508,16.197,22.764,15.881,22.764z M15.881,21.872c-0.18,0-0.323,0.144-0.323,0.32
							s0.145,0.321,0.323,0.321c0.177,0,0.322-0.145,0.322-0.321S16.059,21.872,15.881,21.872z"/>
					</g>
					<g>
						<path fill="#2F2B82" d="M14.53,21.3c-0.247,0-0.446,0.2-0.446,0.447v1.337c0,0.494,0.4,0.893,0.893,0.893h1.785
							c0.491,0,0.892-0.398,0.892-0.893v-1.337c0-0.247-0.2-0.447-0.447-0.447c-0.246,0-0.445,0.2-0.445,0.447v1.337h-1.785v-1.337
							C14.976,21.5,14.776,21.3,14.53,21.3z"/>
						<path fill="#2F2B82" d="M16.761,24.102h-1.785c-0.561,0-1.018-0.456-1.018-1.018v-1.337c0-0.315,0.256-0.572,0.571-0.572
							c0.314,0,0.571,0.257,0.571,0.572v1.212h1.535v-1.212c0-0.315,0.256-0.572,0.57-0.572c0.315,0,0.572,0.257,0.572,0.572v1.337
							C17.778,23.646,17.322,24.102,16.761,24.102z M14.53,21.425c-0.177,0-0.321,0.145-0.321,0.322v1.337
							c0,0.423,0.344,0.768,0.768,0.768h1.785c0.423,0,0.767-0.345,0.767-0.768v-1.337c0-0.178-0.145-0.322-0.322-0.322
							c-0.177,0-0.32,0.145-0.32,0.322v1.462h-2.035v-1.462C14.851,21.569,14.707,21.425,14.53,21.425z"/>
					</g>
				</g>
			</g>
		</g>
	</g>
</g>
</svg>
