<?xml version="1.0" encoding="utf-8"?>
<!-- Generator: Adobe Illustrator 16.0.0, SVG Export Plug-In . SVG Version: 6.00 Build 0)  -->
<!DOCTYPE svg PUBLIC "-//W3C//DTD SVG 1.1//EN" "http://www.w3.org/Graphics/SVG/1.1/DTD/svg11.dtd">
<svg version="1.1" xmlns="http://www.w3.org/2000/svg" xmlns:xlink="http://www.w3.org/1999/xlink" x="0px" y="0px" width="32px"
	 height="31.999px" viewBox="0 0 32 31.999" enable-background="new 0 0 32 31.999" xml:space="preserve">
<g id="Layer_2">
</g>
<g id="Layer_1">
</g>
<g id="Layer_4">
</g>
<g id="Layer_3">
</g>
<g id="Layer_6">
</g>
<g id="Layer_7">
</g>
<g id="Layer_5">
	<g>
		<path fill="#C8D5FC" d="M9.104,8.151c0,0-1.245,0.249-1.021,1.501s2.128,10.492,2.128,10.492s0.183,2.055,1.977,1.833
			c1.794-0.222,13.919-0.624,13.919-0.624l2.734-12.666l-1.253-0.582L9.104,8.151z"/>
		<g>
			<circle fill="#FDFEFF" cx="18.667" cy="14.845" r="4.13"/>
			<g>
				<g>
					<path fill="#2F2B82" d="M18.88,19.181c-2.476,0-4.492-2.015-4.492-4.491c0-2.477,2.016-4.492,4.492-4.492
						c2.477,0,4.492,2.015,4.492,4.492C23.372,17.166,21.357,19.181,18.88,19.181z M18.88,11.555c-1.729,0-3.135,1.405-3.135,3.135
						c0,1.728,1.406,3.136,3.135,3.136s3.136-1.408,3.136-3.136C22.016,12.96,20.609,11.555,18.88,11.555z"/>
					<path fill="#2F2B82" d="M18.88,16.667c-0.374,0-0.678-0.304-0.678-0.679v-2.596c0-0.375,0.304-0.678,0.678-0.678
						c0.375,0,0.678,0.302,0.678,0.678v2.596C19.558,16.362,19.254,16.667,18.88,16.667z"/>
					<path fill="#2F2B82" d="M20.179,15.369h-2.598c-0.374,0-0.677-0.305-0.677-0.679s0.304-0.678,0.677-0.678h2.598
						c0.374,0,0.677,0.304,0.677,0.678S20.553,15.369,20.179,15.369z"/>
				</g>
				<path fill="#2F2B82" d="M27.827,25.151H9.314c-0.729,0-1.41-0.56-1.551-1.274L4.575,7.73C4.567,7.696,4.5,7.642,4.465,7.641
					H2.223c-0.406,0-0.734-0.329-0.734-0.734c0-0.406,0.328-0.734,0.734-0.734h2.242c0.729,0,1.41,0.56,1.55,1.275l3.188,16.146
					c0.009,0.033,0.076,0.088,0.111,0.09h18.512c0.406,0,0.734,0.329,0.734,0.734S28.232,25.151,27.827,25.151z"/>
				<path fill="#2F2B82" d="M26.003,21.996H12.39c-0.73,0-1.411-0.56-1.551-1.274L8.527,8.941C8.449,8.545,8.545,8.148,8.79,7.851
					c0.244-0.297,0.616-0.468,1.019-0.468h12.161c0.405,0,0.733,0.329,0.733,0.734c0,0.404-0.329,0.733-0.733,0.733H10.005
					l2.275,11.587c0.008,0.035,0.075,0.089,0.11,0.091h13.613c0.021-0.003,0.064-0.039,0.07-0.062l1.697-11.616h-2.204
					c-0.405,0-0.734-0.329-0.734-0.733c0-0.405,0.33-0.734,0.734-0.734h2.357c0.396,0,0.767,0.166,1.017,0.456
					c0.25,0.291,0.362,0.681,0.305,1.072l-1.72,11.769C27.418,21.42,26.75,21.996,26.003,21.996z"/>
			</g>
			<circle fill="#C8D5FC" cx="13.057" cy="26.528" r="2.112"/>
			<path fill="#2F2B82" d="M13.057,29.375c-1.569,0-2.846-1.277-2.846-2.846c0-1.569,1.277-2.847,2.846-2.847
				c1.569,0,2.846,1.277,2.846,2.847C15.903,28.098,14.626,29.375,13.057,29.375z M13.057,25.151c-0.759,0-1.378,0.618-1.378,1.378
				c0,0.759,0.619,1.377,1.378,1.377c0.76,0,1.378-0.618,1.378-1.377C14.435,25.77,13.816,25.151,13.057,25.151z"/>
			<circle fill="#C8D5FC" cx="23.996" cy="26.528" r="2.112"/>
			<path fill="#2F2B82" d="M23.996,29.375c-1.569,0-2.846-1.277-2.846-2.846c0-1.569,1.277-2.847,2.846-2.847
				s2.845,1.277,2.845,2.847C26.841,28.098,25.565,29.375,23.996,29.375z M23.996,25.151c-0.76,0-1.378,0.618-1.378,1.378
				c0,0.759,0.619,1.377,1.378,1.377c0.759,0,1.378-0.618,1.378-1.377C25.374,25.77,24.755,25.151,23.996,25.151z"/>
		</g>
	</g>
</g>
</svg>
